<?xml version="1.0" encoding="utf-8"?>
<!-- Generator: Adobe Illustrator 14.0.0, SVG Export Plug-In  -->
<!DOCTYPE svg PUBLIC "-//W3C//DTD SVG 1.1//EN" "http://www.w3.org/Graphics/SVG/1.1/DTD/svg11.dtd" [
	<!ENTITY ns_flows "http://ns.adobe.com/Flows/1.0/">
]>
<svg version="1.1"
	 xmlns="http://www.w3.org/2000/svg" xmlns:xlink="http://www.w3.org/1999/xlink" xmlns:a="http://ns.adobe.com/AdobeSVGViewerExtensions/3.0/"
	 x="0px" y="0px" width="170px" height="42px" viewBox="0 -8.933 170 42" enable-background="new 0 -8.933 170 42"
	 xml:space="preserve">
<defs>
</defs>
<path fill="#24397A" d="M109.171,1.801v0.094c0,1.565-0.788,2.414-2.648,2.517V3.831c1.508-0.125,1.976-0.79,1.976-1.834V1.801
	h-1.707v1.202h-0.668V1.801h-0.751V1.213h0.751V0.378h0.668v0.834l1.707,0.002V0.378h0.673v0.837h0.764v0.585H109.171"/>
<path fill="#24397A" d="M113.473,4.32h-0.907V3.715h0.764c0.396,0,0.523-0.146,0.523-0.503V1.671l-1.358-0.002
	c-0.087,1.486-0.932,2.363-1.933,2.695V3.719c0.671-0.36,1.218-1.018,1.244-2.05h-1.244V1.078h1.244V0.336h0.703l-0.005,0.742h2.062
	V3.26C114.565,3.995,114.232,4.32,113.473,4.32"/>
<path fill="#24397A" d="M118.264,1.938V4.47h-0.718V2.327c-0.641,0.278-1.359,0.443-2.045,0.542V2.253
	c1.943-0.343,2.87-1.043,3.291-1.866h0.773C119.295,1.062,118.833,1.558,118.264,1.938"/>
<path fill="#24397A" d="M120.467,4.403V3.669c0.73-0.682,0.972-1.72,0.972-2.927V0.463h0.703v0.259
	C122.142,2.654,121.545,3.837,120.467,4.403 M123.066,0.722V0.463h0.714v0.285c0,1.202,0.236,2.237,0.963,2.917V4.41
	C123.667,3.837,123.066,2.649,123.066,0.722"/>
<path fill="#24397A" d="M126.675,4.41V3.811c1.413-0.209,2.186-0.927,2.236-2.285l-2.662-0.001v1.009l-0.671-0.002v-1.6h1.65V0.308
	h0.71v0.623l1.73,0.004v0.141C129.669,3.059,128.781,4.157,126.675,4.41"/>
<path fill="#24397A" d="M133.002,2.967c-0.701,0.741-1.606,1.198-2.449,1.386V3.731c1.132-0.315,2.324-1.216,2.717-2.569h-2.476
	V0.556l3.321,0.001c-0.085,0.71-0.322,1.319-0.658,1.833c0.284,0.65,0.801,1.057,1.262,1.322v0.69
	C133.955,4.123,133.369,3.586,133.002,2.967"/>
<path fill="#24397A" d="M2.3,18.347c0.756,0.859,1.498,1.496,2.238,1.93c0.733,0.413,1.467,0.629,2.199,0.629
	c0.683,0,1.25-0.183,1.683-0.549c0.438-0.365,0.656-0.825,0.656-1.384c0-0.626-0.188-1.1-0.571-1.436
	c-0.381-0.335-1.238-0.678-2.579-1.031c-1.827-0.492-3.12-1.139-3.872-1.924c-0.755-0.784-1.133-1.867-1.133-3.247
	c0-1.779,0.595-3.229,1.79-4.356c1.199-1.128,2.748-1.684,4.65-1.684c1.033,0,2.008,0.14,2.928,0.412s1.795,0.692,2.62,1.252
	l-1.59,3.657c-0.576-0.491-1.175-0.863-1.786-1.115c-0.605-0.253-1.21-0.374-1.806-0.374c-0.613,0-1.114,0.137-1.499,0.438
	c-0.384,0.29-0.574,0.664-0.574,1.121c0,0.466,0.169,0.845,0.508,1.119c0.337,0.284,0.986,0.547,1.957,0.803l0.23,0.068
	c2.067,0.562,3.432,1.18,4.088,1.845c0.438,0.46,0.772,1.01,1.004,1.65c0.225,0.638,0.346,1.347,0.346,2.133
	c0,1.975-0.654,3.562-1.957,4.765c-1.3,1.201-3.037,1.801-5.201,1.801c-1.3-0.003-2.492-0.227-3.551-0.668
	c-1.066-0.438-2.094-1.135-3.08-2.07L2.3,18.347"/>
<path fill="#24397A" d="M22.75,11.532c0.112-0.379,0.22-0.767,0.323-1.179c0.111-0.4,0.217-0.834,0.319-1.28
	c0.159,0.636,0.279,1.167,0.385,1.573c0.104,0.409,0.182,0.702,0.238,0.889l1.856,6.039l-4.948-0.004L22.75,11.532 M18.893,24.38
	l0.949-3.247h7.088l0.922,3.249l4.958,0.001L26.497,6.109l-6.25-0.001L13.935,24.38H18.893z"/>
<polyline fill="#24397A" points="34.058,24.383 34.059,6.109 39.018,6.116 39.015,14.417 44.792,6.116 50.61,6.116 43.849,15.023 
	51.19,24.394 44.968,24.383 39.015,16.184 39.015,24.383 34.058,24.383 "/>
<path fill="#24397A" d="M58.769,11.54c0.112-0.376,0.22-0.767,0.323-1.178c0.108-0.401,0.212-0.833,0.319-1.284
	c0.154,0.641,0.284,1.167,0.381,1.574c0.108,0.412,0.187,0.702,0.24,0.888l1.872,6.042h-4.971L58.769,11.54 M54.908,24.394
	l0.956-3.256h7.08l0.923,3.256l4.963,0.003l-6.32-18.278L56.26,6.116l-6.303,18.277H54.908z"/>
<polyline fill="#24397A" points="70.186,24.396 70.19,6.122 75.216,6.122 75.212,24.396 70.186,24.396 "/>
<polyline fill="#24397A" points="97.899,5.909 97.895,13.241 91.227,13.24 91.23,5.909 86.251,5.909 86.249,24.398 91.225,24.398 
	91.227,16.961 97.895,16.961 97.893,24.399 102.895,24.399 102.898,5.909 97.899,5.909 "/>
<polyline fill="#F68B1E" points="91.23,0.006 86.254,0 86.254,4.836 91.23,4.836 91.23,0.006 "/>
<rect x="97.899" y="0.006" fill="#F68B1E" width="4.999" height="4.832"/>
<path fill="#24397A" d="M110.787,19.172c-0.893-1.005-1.332-2.299-1.332-3.866c0-1.532,0.45-2.816,1.35-3.839
	c0.909-1.023,2.049-1.534,3.436-1.534c1.353,0,2.491,0.514,3.415,1.535c0.909,1.031,1.369,2.315,1.369,3.842
	c0,1.549-0.452,2.835-1.361,3.85c-0.899,1.018-2.042,1.525-3.425,1.525C112.826,20.685,111.676,20.177,110.787,19.172
	 M123.272,11.617c-0.485-1.16-1.189-2.188-2.102-3.078c-0.915-0.901-1.979-1.59-3.182-2.083c-1.203-0.486-2.461-0.729-3.761-0.729
	c-1.303,0-2.563,0.244-3.75,0.729c-1.193,0.487-2.251,1.181-3.15,2.078c-0.946,0.908-1.662,1.932-2.149,3.083
	c-0.483,1.152-0.74,2.385-0.74,3.689c0,1.303,0.257,2.525,0.738,3.682c0.487,1.16,1.201,2.188,2.143,3.098
	c0.904,0.896,1.966,1.592,3.155,2.077c1.188,0.486,2.444,0.733,3.75,0.733c1.296,0,2.537-0.244,3.741-0.731
	c1.2-0.486,2.262-1.18,3.205-2.079c0.922-0.907,1.618-1.933,2.102-3.084c0.482-1.146,0.732-2.377,0.732-3.691
	C124.005,14.005,123.759,12.775,123.272,11.617"/>
<path fill="#24397A" d="M125.503,6.137h4.971l-0.004,8.896c0,1.304,0.044,2.242,0.105,2.813c0.066,0.573,0.18,1.055,0.338,1.432
	c0.19,0.47,0.519,0.824,1.003,1.068c0.467,0.247,1.058,0.372,1.743,0.372c0.687,0,1.258-0.125,1.733-0.372
	c0.468-0.244,0.813-0.599,1.007-1.067c0.159-0.378,0.272-0.859,0.335-1.433c0.067-0.571,0.097-1.51,0.097-2.813v-1.251l0.004-7.646
	l4.959,0.003l-0.004,9.674c0,2.001-0.121,3.475-0.37,4.425c-0.239,0.956-0.645,1.765-1.214,2.439
	c-0.633,0.738-1.486,1.297-2.582,1.665c-1.092,0.366-2.419,0.554-3.983,0.554s-2.884-0.188-3.976-0.559
	c-1.086-0.363-1.949-0.922-2.584-1.66c-0.565-0.68-0.973-1.49-1.21-2.446c-0.249-0.946-0.368-2.418-0.368-4.429v-1.897V6.137"/>
<path fill="#24397A" d="M144.979,18.194c0.791,0.88,1.566,1.541,2.321,1.976c0.763,0.444,1.519,0.66,2.273,0.66
	c0.707,0,1.284-0.188,1.742-0.566c0.453-0.374,0.688-0.85,0.688-1.431c0-0.631-0.203-1.122-0.593-1.474
	c-0.398-0.343-1.294-0.706-2.675-1.069c-1.887-0.507-3.214-1.162-3.997-1.989c-0.779-0.814-1.176-1.932-1.176-3.355
	c0.002-1.834,0.622-3.344,1.853-4.506c1.243-1.158,2.841-1.742,4.81-1.742c1.068,0,2.067,0.153,3.021,0.436
	c0.952,0.284,1.857,0.716,2.707,1.295l-1.642,3.786c-0.604-0.512-1.214-0.896-1.845-1.16c-0.619-0.263-1.251-0.388-1.873-0.388
	c-0.632,0-1.151,0.149-1.54,0.449c-0.397,0.306-0.592,0.699-0.592,1.169c0,0.482,0.173,0.868,0.522,1.158
	c0.351,0.294,1.021,0.571,2.018,0.833l0.24,0.064c2.14,0.583,3.55,1.214,4.221,1.91c0.459,0.473,0.809,1.039,1.045,1.698
	c0.232,0.66,0.354,1.397,0.354,2.203c0,2.037-0.672,3.681-2.017,4.917c-1.343,1.238-3.142,1.866-5.377,1.866
	c-1.349,0-2.571-0.235-3.674-0.691c-1.104-0.458-2.152-1.177-3.183-2.149L144.979,18.194"/>
<polyline fill="#24397A" points="158.188,24.416 158.195,5.165 170,5.17 170,9.375 163.313,9.375 163.31,12.744 169.615,12.744 
	169.615,16.871 163.31,16.869 163.31,20.101 170,20.101 169.998,24.42 158.188,24.416 "/>
</svg>
