<?xml version="1.0" encoding="utf-8"?>
<!-- Generator: Adobe Illustrator 14.0.0, SVG Export Plug-In  -->
<!DOCTYPE svg PUBLIC "-//W3C//DTD SVG 1.1//EN" "http://www.w3.org/Graphics/SVG/1.1/DTD/svg11.dtd" [
	<!ENTITY ns_flows "http://ns.adobe.com/Flows/1.0/">
]>
<svg version="1.1"
	 xmlns="http://www.w3.org/2000/svg" xmlns:xlink="http://www.w3.org/1999/xlink" xmlns:a="http://ns.adobe.com/AdobeSVGViewerExtensions/3.0/"
	 x="0px" y="0px" width="48px" height="48px" viewBox="-4.657 -4.794 48 48" enable-background="new -4.657 -4.794 48 48"
	 xml:space="preserve">
<defs>
</defs>
<path id="パス_784_1_" fill="#333333" d="M26.973,4.635c3.759,0.004,6.806,3.051,6.808,6.81V26.97
	c-0.003,3.76-3.049,6.805-6.808,6.809H11.441c-3.758-0.004-6.805-3.049-6.809-6.809V11.443c0.004-3.759,3.051-6.806,6.809-6.81
	L26.973,4.635 M26.973,0H11.441C5.131,0.019,0.019,5.131,0,11.441V26.97c0.019,6.311,5.131,11.424,11.441,11.443h15.531
	c6.312-0.02,11.424-5.133,11.441-11.443V11.443C38.396,5.132,33.284,0.02,26.973,0L26.973,0z"/>
<path id="パス_785_1_" fill="#333333" d="M29.425,6.539c-1.354,0-2.452,1.099-2.452,2.453l0,0c0,1.354,1.098,2.452,2.452,2.452
	l0,0c1.354,0,2.453-1.098,2.453-2.452l0,0C31.878,7.638,30.779,6.539,29.425,6.539L29.425,6.539z"/>
<path id="パス_786_1_" fill="#333333" d="M19.209,13.626c3.082,0.003,5.58,2.502,5.582,5.586c-0.003,3.08-2.501,5.578-5.582,5.582
	c-3.082-0.002-5.581-2.5-5.585-5.582C13.628,16.128,16.126,13.631,19.209,13.626 M19.209,8.993c-5.644,0-10.217,4.572-10.219,10.216
	c0,0,0,0.001,0,0.003c0,5.641,4.575,10.217,10.219,10.217c5.643,0,10.216-4.576,10.216-10.217
	C29.425,13.568,24.85,8.993,19.209,8.993L19.209,8.993z"/>
</svg>
