<?xml version="1.0" encoding="utf-8"?>
<!-- Generator: Adobe Illustrator 14.0.0, SVG Export Plug-In . SVG Version: 6.00 Build 43363)  -->
<!DOCTYPE svg PUBLIC "-//W3C//DTD SVG 1.1//EN" "http://www.w3.org/Graphics/SVG/1.1/DTD/svg11.dtd">
<svg version="1.1" id="レイヤー_1" xmlns="http://www.w3.org/2000/svg" xmlns:xlink="http://www.w3.org/1999/xlink" x="0px"
	 y="0px" width="48px" height="48px" viewBox="0 0 48 48" enable-background="new 0 0 48 48" xml:space="preserve">
<path fill="#014C82" d="M42.068,17.461l-3.003-5.632c-0.261-0.489-0.77-0.794-1.323-0.794H9.747c-0.554,0-1.063,0.306-1.324,0.794
	l-3.001,5.632c-0.248,0.465-0.233,1.026,0.038,1.478s0.759,0.728,1.286,0.728h2.886v14.466c0,0.828,0.671,1.5,1.5,1.5h25.229
	c0.828,0,1.5-0.672,1.5-1.5V19.667h2.886c0.527,0,1.015-0.276,1.286-0.728C42.303,18.486,42.316,17.926,42.068,17.461z"/>
<g>
	<g>
		<g>
			<circle fill="#FFFFFF" cx="19.118" cy="22.548" r="1.487"/>
			<circle fill="#FFFFFF" cx="28.371" cy="22.548" r="1.488"/>
		</g>
	</g>
	<path fill="none" stroke="#FFFFFF" stroke-width="1.5" stroke-linecap="round" d="M27.735,28.52
		c-0.511,0.572-1.118,1.034-1.793,1.354c-0.676,0.318-1.418,0.496-2.196,0.496c-0.779,0-1.522-0.178-2.197-0.496
		c-0.675-0.32-1.282-0.782-1.793-1.354"/>
</g>
</svg>
