<?xml version="1.0" encoding="utf-8"?>
<!-- Generator: Adobe Illustrator 14.0.0, SVG Export Plug-In . SVG Version: 6.00 Build 43363)  -->
<!DOCTYPE svg PUBLIC "-//W3C//DTD SVG 1.1//EN" "http://www.w3.org/Graphics/SVG/1.1/DTD/svg11.dtd">
<svg version="1.1" id="レイヤー_1" xmlns="http://www.w3.org/2000/svg" xmlns:xlink="http://www.w3.org/1999/xlink" x="0px"
	 y="0px" width="48px" height="48px" viewBox="0 0 48 48" enable-background="new 0 0 48 48" xml:space="preserve">
<g>
	<path fill="#7EB811" d="M7.766,40.803c-0.551,0-1-0.448-1-1V25.866c0-0.552,0.449-1,1-1h3.802c2.75,0,4.984-2.221,5-4.972
		c0.039-6.853,5.646-12.427,12.499-12.427c6.892,0,12.499,5.607,12.499,12.5c0,6.893-5.607,12.5-12.499,12.5
		c-0.323,0-0.646-0.013-0.967-0.038c-0.133-0.011-0.266-0.016-0.397-0.016c-1.253,0-2.465,0.471-3.392,1.326
		c-1.025,0.947-1.608,2.278-1.608,3.674v2.39c0,0.552-0.449,1-1,1H7.766z"/>
	<path fill="#7EB811" d="M7.766,40.803c-0.551,0-1-0.448-1-1V25.866c0-0.552,0.449-1,1-1h3.802c2.75,0,4.984-2.221,5-4.972
		c0.039-6.853,5.646-12.427,12.499-12.427c6.892,0,12.499,5.607,12.499,12.5c0,6.893-5.607,12.5-12.499,12.5
		c-0.323,0-0.646-0.013-0.967-0.038c-0.133-0.011-0.266-0.016-0.397-0.016c-1.253,0-2.465,0.471-3.392,1.326
		c-1.025,0.947-1.608,2.278-1.608,3.674v2.39c0,0.552-0.449,1-1,1H7.766z"/>
</g>
<g>
	<g>
		<g>
			<circle fill="#FFFFFF" cx="24.519" cy="17.217" r="1.487"/>
			<circle fill="#FFFFFF" cx="33.771" cy="17.217" r="1.488"/>
		</g>
	</g>
	<path fill="none" stroke="#FFFFFF" stroke-width="1.5" stroke-linecap="round" d="M33.135,23.188
		c-0.51,0.572-1.117,1.034-1.793,1.354c-0.676,0.319-1.418,0.498-2.195,0.498c-0.779,0-1.523-0.179-2.197-0.498
		c-0.676-0.32-1.283-0.782-1.793-1.354"/>
</g>
</svg>
