<?xml version="1.0" encoding="utf-8"?>
<!-- Generator: Adobe Illustrator 14.0.0, SVG Export Plug-In . SVG Version: 6.00 Build 43363)  -->
<!DOCTYPE svg PUBLIC "-//W3C//DTD SVG 1.1//EN" "http://www.w3.org/Graphics/SVG/1.1/DTD/svg11.dtd">
<svg version="1.1" id="レイヤー_1" xmlns="http://www.w3.org/2000/svg" xmlns:xlink="http://www.w3.org/1999/xlink" x="0px"
	 y="0px" width="48px" height="48px" viewBox="0 0 48 48" enable-background="new 0 0 48 48" xml:space="preserve">
<path fill="#04256C" d="M17.382,28.991c1.176,1.337,2.33,2.327,3.481,3.001c1.14,0.644,2.281,0.979,3.421,0.979
	c1.062,0,1.944-0.284,2.617-0.854c0.682-0.568,1.021-1.283,1.021-2.152c0-0.974-0.293-1.71-0.889-2.232
	c-0.593-0.521-1.926-1.054-4.012-1.604c-2.842-0.767-4.853-1.771-6.022-2.992c-1.176-1.22-1.762-2.902-1.762-5.05
	c0-2.768,0.925-5.023,2.784-6.776c1.865-1.755,4.272-2.619,7.231-2.619c1.607,0,3.123,0.218,4.556,0.641
	c1.433,0.423,2.792,1.077,4.075,1.947l-2.474,5.688c-0.896-0.763-1.828-1.343-2.779-1.734c-0.941-0.394-1.882-0.581-2.807-0.581
	c-0.954,0-1.734,0.213-2.331,0.682c-0.598,0.451-0.894,1.032-0.894,1.743c0,0.724,0.263,1.314,0.789,1.74
	c0.525,0.441,1.534,0.851,3.045,1.249l0.356,0.105c3.217,0.875,5.337,1.834,6.36,2.87c0.682,0.715,1.201,1.57,1.561,2.564
	c0.35,0.993,0.539,2.096,0.539,3.318c0,3.071-1.018,5.539-3.044,7.41c-2.022,1.868-4.723,2.802-8.089,2.802
	c-2.022-0.005-3.876-0.353-5.522-1.04c-1.659-0.68-3.259-1.765-4.792-3.22L17.382,28.991"/>
</svg>
