<?xml version="1.0" encoding="utf-8"?>
<!-- Generator: Adobe Illustrator 14.0.0, SVG Export Plug-In . SVG Version: 6.00 Build 43363)  -->
<!DOCTYPE svg PUBLIC "-//W3C//DTD SVG 1.1//EN" "http://www.w3.org/Graphics/SVG/1.1/DTD/svg11.dtd">
<svg version="1.1" id="レイヤー_1" xmlns="http://www.w3.org/2000/svg" xmlns:xlink="http://www.w3.org/1999/xlink" x="0px"
	 y="0px" width="48px" height="48px" viewBox="0 0 48 48" enable-background="new 0 0 48 48" xml:space="preserve">
<path fill="#B8621A" d="M40.162,11.166H28.328V9.333h-8.5v1.833H7.995c-0.553,0-1,0.448-1,1v18.003c0,0.553,0.447,1,1,1h11.833v7.5
	h8.5v-7.5h11.834c0.553,0,1-0.447,1-1V12.166C41.162,11.614,40.715,11.166,40.162,11.166z"/>
<g>
	<g>
		<g>
			<circle fill="#FFFFFF" cx="19.452" cy="18.5" r="1.487"/>
			<circle fill="#FFFFFF" cx="28.705" cy="18.5" r="1.488"/>
		</g>
	</g>
	<path fill="none" stroke="#FFFFFF" stroke-width="1.5" stroke-linecap="round" d="M28.068,24.47
		c-0.51,0.575-1.117,1.037-1.793,1.357c-0.676,0.318-1.418,0.496-2.195,0.496c-0.779,0-1.523-0.178-2.197-0.496
		c-0.676-0.32-1.283-0.782-1.793-1.357"/>
</g>
</svg>
